<svg xmlns="http://www.w3.org/2000/svg" viewBox="0 0 512 512">
  <!-- Final: concept-c-pixel 原版青蛙 + v3 的圆形背景/AI 元素 + 双行文字 -->

  <!-- 圆形背景 -->
  <circle cx="256" cy="256" r="248" fill="#1e1b4b"/>

  <!-- AI 神经网络 -->
  <circle cx="256" cy="256" r="238" fill="none" stroke="#4ade80" stroke-width="1" opacity="0.15"/>
  <circle cx="256" cy="256" r="220" fill="none" stroke="#22c55e" stroke-width="0.5" opacity="0.1"/>

  <!-- AI 节点 -->
  <circle cx="256" cy="48" r="4" fill="#4ade80" opacity="0.5"/>
  <circle cx="420" cy="140" r="3.5" fill="#22c55e" opacity="0.4"/>
  <circle cx="460" cy="280" r="4" fill="#4ade80" opacity="0.4"/>
  <circle cx="390" cy="430" r="3.5" fill="#22c55e" opacity="0.35"/>
  <circle cx="256" cy="475" r="4" fill="#4ade80" opacity="0.4"/>
  <circle cx="120" cy="430" r="3.5" fill="#22c55e" opacity="0.35"/>
  <circle cx="52" cy="280" r="4" fill="#4ade80" opacity="0.4"/>
  <circle cx="92" cy="140" r="3.5" fill="#22c55e" opacity="0.4"/>

  <!-- 节点连线 -->
  <line x1="256" y1="48" x2="256" y2="100" stroke="#4ade80" stroke-width="0.8" opacity="0.15"/>
  <line x1="420" y1="140" x2="360" y2="155" stroke="#22c55e" stroke-width="0.8" opacity="0.12"/>
  <line x1="92" y1="140" x2="152" y2="155" stroke="#22c55e" stroke-width="0.8" opacity="0.12"/>
  <line x1="460" y1="280" x2="400" y2="270" stroke="#4ade80" stroke-width="0.8" opacity="0.1"/>
  <line x1="52" y1="280" x2="112" y2="270" stroke="#4ade80" stroke-width="0.8" opacity="0.1"/>

  <!-- 像素青蛙 — 原版 concept-c 的青蛙，整体上移 -->

  <!-- Row 1: 眼睛 -->
  <rect x="136" y="96" width="40" height="40" rx="4" fill="#22c55e"/>
  <rect x="176" y="96" width="40" height="40" rx="4" fill="#22c55e"/>
  <rect x="296" y="96" width="40" height="40" rx="4" fill="#22c55e"/>
  <rect x="336" y="96" width="40" height="40" rx="4" fill="#22c55e"/>

  <!-- Row 2: 眼睛+头 -->
  <rect x="136" y="136" width="40" height="40" rx="4" fill="#bbf7d0"/>
  <rect x="176" y="136" width="40" height="40" rx="4" fill="#0f172a"/>
  <rect x="216" y="136" width="40" height="40" rx="4" fill="#22c55e"/>
  <rect x="256" y="136" width="40" height="40" rx="4" fill="#22c55e"/>
  <rect x="296" y="136" width="40" height="40" rx="4" fill="#bbf7d0"/>
  <rect x="336" y="136" width="40" height="40" rx="4" fill="#0f172a"/>

  <!-- Row 3: 头部 -->
  <rect x="136" y="176" width="40" height="40" rx="4" fill="#22c55e"/>
  <rect x="176" y="176" width="40" height="40" rx="4" fill="#22c55e"/>
  <rect x="216" y="176" width="40" height="40" rx="4" fill="#22c55e"/>
  <rect x="256" y="176" width="40" height="40" rx="4" fill="#22c55e"/>
  <rect x="296" y="176" width="40" height="40" rx="4" fill="#22c55e"/>
  <rect x="336" y="176" width="40" height="40" rx="4" fill="#22c55e"/>

  <!-- Row 4: 嘴巴 -->
  <rect x="136" y="216" width="40" height="40" rx="4" fill="#22c55e"/>
  <rect x="176" y="216" width="40" height="40" rx="4" fill="#16a34a"/>
  <rect x="216" y="216" width="40" height="40" rx="4" fill="#22c55e"/>
  <rect x="256" y="216" width="40" height="40" rx="4" fill="#22c55e"/>
  <rect x="296" y="216" width="40" height="40" rx="4" fill="#16a34a"/>
  <rect x="336" y="216" width="40" height="40" rx="4" fill="#22c55e"/>

  <!-- Row 5: 身体 -->
  <rect x="96" y="256" width="40" height="40" rx="4" fill="#4ade80"/>
  <rect x="136" y="256" width="40" height="40" rx="4" fill="#22c55e"/>
  <rect x="176" y="256" width="40" height="40" rx="4" fill="#22c55e"/>
  <rect x="216" y="256" width="40" height="40" rx="4" fill="#22c55e"/>
  <rect x="256" y="256" width="40" height="40" rx="4" fill="#22c55e"/>
  <rect x="296" y="256" width="40" height="40" rx="4" fill="#22c55e"/>
  <rect x="336" y="256" width="40" height="40" rx="4" fill="#22c55e"/>
  <rect x="376" y="256" width="40" height="40" rx="4" fill="#4ade80"/>

  <!-- Row 6: 脚 -->
  <rect x="96" y="296" width="40" height="40" rx="4" fill="#4ade80"/>
  <rect x="136" y="296" width="40" height="40" rx="4" fill="#4ade80"/>
  <rect x="336" y="296" width="40" height="40" rx="4" fill="#4ade80"/>
  <rect x="376" y="296" width="40" height="40" rx="4" fill="#4ade80"/>

  <!-- 底部文字 -->
  <text x="256" y="405" font-family="ui-monospace, 'SF Mono', monospace" font-size="42" font-weight="800" fill="#ffffff" text-anchor="middle" letter-spacing="5">BitFrog</text>
  <text x="256" y="438" font-family="ui-monospace, 'SF Mono', monospace" font-size="18" font-weight="400" fill="#a5b4fc" text-anchor="middle" letter-spacing="6">COPILOT</text>
</svg>
